<svg width="155" height="155" viewBox="0 0 155 155" fill="none" xmlns="http://www.w3.org/2000/svg">
<path fill-rule="evenodd" clip-rule="evenodd" d="M155 0H0V155H155V0ZM122.91 99.483C136.568 105.023 141.18 110.961 142.314 118.033C143.405 124.118 142.049 128.067 141.843 128.656C136.804 145.895 108.706 146.455 97.4791 135.065C97.1381 134.68 96.8153 134.321 96.5084 133.98C94.6805 131.946 93.4155 130.539 92.2044 127.89L92.2114 127.886C98.1716 124.457 98.1739 124.456 103.977 121.098C107.13 125.945 110.047 128.612 115.292 129.702C122.409 130.571 129.569 128.126 127.963 120.567C127.007 116.988 122.261 114.979 116.728 112.636C112.717 110.938 108.292 109.064 104.595 106.29C95.6667 100.293 93.5745 85.7217 100.912 77.3971C103.358 74.3177 107.528 72.0192 111.903 70.9142C112.658 70.8188 113.417 70.7198 114.176 70.6209C114.942 70.521 115.708 70.4211 116.471 70.3248C125.238 70.148 130.719 72.4612 134.741 76.955C135.861 78.0894 136.774 79.3125 138.483 81.9646C137.52 82.5786 136.755 83.0648 136.09 83.4876C133.533 85.1142 132.447 85.8051 127.138 89.2429C125.709 86.1637 123.337 84.2334 120.832 83.3936C116.942 82.2149 112.036 83.4967 111.019 87.6075C110.666 88.8746 110.739 90.0533 111.299 92.1455C112.575 95.0554 116.284 96.6331 120.167 98.2851C121.081 98.6742 122.005 99.0673 122.91 99.483ZM69.7647 71.2382H84.2628C84.2628 75.6861 84.271 80.1292 84.2791 84.569C84.2955 93.4388 84.3119 102.295 84.2628 111.152C84.2671 112.355 84.2862 113.54 84.305 114.707C84.4137 121.447 84.5123 127.565 81.6991 132.752C79.4153 137.393 75.0543 140.443 70.0005 141.916C62.2357 143.699 54.8098 142.682 49.2846 139.367C45.5864 137.098 42.6988 133.607 40.739 129.584C42.704 128.385 44.6654 127.181 46.6268 125.978C48.592 124.772 50.5573 123.567 52.5261 122.365C52.618 122.404 52.8734 122.852 53.2196 123.46C53.2621 123.534 53.3061 123.612 53.3513 123.691C54.8542 126.21 56.1507 127.993 58.6997 129.245C61.2045 130.1 66.7002 130.645 68.8218 126.24C69.8562 124.453 69.8028 119.441 69.739 113.439C69.7228 111.918 69.7059 110.333 69.7059 108.721C69.7059 102.459 69.7206 96.2194 69.7353 89.9796C69.75 83.7398 69.7647 77.5 69.7647 71.2382Z" fill="white"/>
</svg>
