<?xml version="1.0" encoding="UTF-8"?>
<svg width="12px" height="24px" viewBox="0 0 12 24" version="1.1" xmlns="http://www.w3.org/2000/svg" xmlns:xlink="http://www.w3.org/1999/xlink">
    <title>mongo</title>
    <g id="Page-1" stroke="none" stroke-width="1" fill="none" fill-rule="evenodd">
        <g id="mongo" fill="#FFFFFF" fill-rule="nonzero">
            <path d="M11.18,9.518 C9.917,3.958 6.938,2.131 6.618,1.432 C6.266,0.939 5.885,0 5.885,0 C5.883,0.019 5.881,0.031 5.88,0.049 L5.88,0.062 L5.879,0.062 C5.877,0.077 5.876,0.087 5.875,0.101 L5.875,0.116 L5.873,0.116 C5.873,0.126 5.871,0.134 5.871,0.142 L5.871,0.168 L5.868,0.168 C5.867,0.176 5.867,0.186 5.865,0.193 L5.865,0.214 L5.863,0.214 C5.863,0.221 5.863,0.229 5.861,0.235 L5.861,0.255 L5.859,0.255 C5.859,0.265 5.858,0.277 5.857,0.287 L5.857,0.289 C5.854,0.306 5.851,0.323 5.848,0.339 L5.848,0.347 L5.846,0.347 C5.845,0.351 5.843,0.355 5.843,0.359 L5.843,0.376 L5.84,0.376 L5.84,0.398 L5.835,0.398 L5.835,0.416 L5.83,0.416 L5.83,0.437 L5.826,0.437 L5.826,0.456 L5.822,0.456 L5.822,0.473 L5.816,0.473 L5.816,0.487 L5.812,0.487 L5.812,0.505 L5.808,0.505 L5.808,0.519 L5.803,0.519 L5.803,0.532 L5.8,0.532 L5.8,0.547 L5.796,0.547 C5.795,0.548 5.795,0.55 5.795,0.551 L5.795,0.561 L5.792,0.561 C5.791,0.563 5.791,0.565 5.791,0.567 L5.791,0.573 L5.789,0.573 C5.788,0.576 5.787,0.581 5.787,0.583 C5.784,0.59 5.78,0.597 5.777,0.604 L5.777,0.606 C5.775,0.608 5.773,0.611 5.772,0.613 L5.772,0.621 L5.768,0.621 L5.768,0.629 L5.763,0.629 L5.763,0.637 L5.76,0.637 L5.76,0.647 L5.754,0.647 L5.754,0.661 L5.75,0.661 L5.75,0.665 L5.746,0.665 L5.746,0.673 L5.742,0.673 L5.742,0.684 L5.738,0.684 L5.738,0.692 L5.732,0.692 L5.732,0.703 L5.728,0.703 L5.728,0.711 L5.723,0.711 L5.723,0.719 L5.72,0.719 L5.72,0.729 L5.715,0.729 L5.715,0.737 L5.711,0.737 L5.711,0.743 L5.707,0.743 L5.707,0.751 L5.701,0.751 L5.701,0.76 L5.697,0.76 L5.697,0.766 L5.692,0.766 L5.692,0.774 L5.688,0.774 L5.688,0.785 L5.683,0.785 L5.683,0.789 L5.68,0.789 L5.68,0.797 L5.674,0.797 L5.674,0.801 L5.67,0.801 L5.67,0.811 L5.666,0.811 L5.666,0.815 L5.662,0.815 L5.662,0.823 L5.657,0.823 L5.657,0.829 L5.654,0.829 L5.652,0.833 L5.652,0.837 L5.65,0.837 C5.649,0.839 5.648,0.839 5.648,0.841 L5.648,0.842 L5.647,0.842 C5.646,0.845 5.645,0.847 5.643,0.849 L5.643,0.852 L5.642,0.852 C5.637,0.858 5.634,0.864 5.63,0.87 L5.63,0.871 C5.628,0.873 5.623,0.877 5.621,0.881 L5.621,0.883 L5.62,0.883 C5.619,0.884 5.617,0.885 5.617,0.886 L5.617,0.889 L5.615,0.889 L5.612,0.892 L5.612,0.893 L5.611,0.893 C5.611,0.894 5.609,0.895 5.608,0.897 L5.608,0.901 L5.605,0.901 L5.603,0.903 L5.603,0.905 L5.601,0.905 C5.601,0.907 5.599,0.907 5.599,0.908 L5.599,0.911 L5.595,0.911 C5.595,0.912 5.594,0.913 5.593,0.914 L5.593,0.92 L5.59,0.92 L5.59,0.924 L5.586,0.924 L5.586,0.93 L5.582,0.93 L5.582,0.938 L5.577,0.938 L5.577,0.93 L5.572,0.93 L5.572,0.934 L5.568,0.934 L5.568,0.94 L5.563,0.94 L5.563,0.948 L5.558,0.948 L5.558,0.952 L5.554,0.952 L5.554,0.958 L5.55,0.958 L5.55,0.962 L5.546,0.962 L5.546,0.97 L5.54,0.97 L5.54,0.974 L5.536,0.974 L5.536,0.98 L5.531,0.98 L5.531,0.984 L5.527,0.984 L5.527,0.989 L5.522,0.989 L5.522,0.999 L5.52,0.999 L5.52,1.003 L5.514,1.003 L5.514,1.008 L5.51,1.008 L5.51,1.01 L5.506,1.01 L5.506,1.014 L5.501,1.014 L5.501,1.024 L5.497,1.024 L5.497,1.028 L5.492,1.028 L5.492,1.032 L5.488,1.032 L5.488,1.038 L5.483,1.038 L5.483,1.042 L5.478,1.042 L5.478,1.046 L5.474,1.046 L5.474,1.05 L5.47,1.05 L5.47,1.06 L5.466,1.06 L5.466,1.065 L5.46,1.065 L5.46,1.069 L5.456,1.069 L5.456,1.073 L5.451,1.073 L5.451,1.079 L5.447,1.079 L5.447,1.083 L5.442,1.083 L5.442,1.09 L5.438,1.09 L5.438,1.094 L5.432,1.094 L5.432,1.1 L5.43,1.1 L5.43,1.104 L5.426,1.104 L5.426,1.108 L5.421,1.108 L5.421,1.112 L5.417,1.112 L5.417,1.118 L5.412,1.118 L5.412,1.122 L5.409,1.122 C5.408,1.123 5.408,1.124 5.408,1.124 L5.408,1.126 L5.406,1.126 L5.402,1.13 C5.402,1.13 5.4,1.132 5.398,1.133 L5.398,1.139 L5.394,1.139 L5.394,1.144 L5.39,1.144 L5.39,1.148 L5.386,1.148 L5.386,1.152 L5.383,1.152 L5.38,1.155 L5.38,1.158 L5.378,1.158 L5.376,1.16 L5.376,1.163 L5.374,1.163 C5.369,1.169 5.367,1.173 5.36,1.179 C5.358,1.181 5.352,1.186 5.348,1.189 C5.336,1.197 5.321,1.21 5.309,1.221 C5.301,1.226 5.293,1.233 5.287,1.238 L5.287,1.239 L5.286,1.239 C5.27,1.252 5.255,1.264 5.237,1.278 L5.237,1.279 C5.213,1.299 5.19,1.318 5.163,1.341 L5.163,1.34 L5.161,1.34 C5.104,1.387 5.044,1.44 4.975,1.499 L4.975,1.5 L4.974,1.5 C4.805,1.648 4.604,1.838 4.379,2.068 L4.364,2.083 L4.36,2.087 C3,3.494 0.857,6.426 0.631,11.164 C0.611,11.556 0.615,11.937 0.637,12.308 L0.637,12.317 C0.746,14.184 1.332,15.778 2.065,17.073 L2.065,17.074 C2.357,17.59 2.672,18.059 2.991,18.479 L2.991,18.48 C4.093,19.935 5.218,20.797 5.505,21.006 C5.946,22.029 5.905,23.785 5.905,23.785 L6.549,24 C6.549,24 6.418,22.299 6.602,21.478 C6.659,21.221 6.794,21.002 6.951,20.816 C7.057,20.741 7.371,20.515 7.748,20.171 C7.766,20.152 7.776,20.135 7.792,20.117 C9.313,18.699 12.154,15.207 11.18,9.518 L11.18,9.518 Z" id="Path"></path>
        </g>
    </g>
</svg>