<?xml version="1.0" encoding="UTF-8"?>
<svg width="72px" height="78px" viewBox="0 0 72 78" version="1.1" xmlns="http://www.w3.org/2000/svg" xmlns:xlink="http://www.w3.org/1999/xlink">
    <title>icons8-node-js</title>
    <g id="Page-1" stroke="none" stroke-width="1" fill="none" fill-rule="evenodd">
        <g id="icons8-node-js" fill="#FFFFFF" fill-rule="nonzero">
            <path d="M35.982423,0 C34.887423,0 33.792657,0.2685939 32.847657,0.8085936 L3.1171875,17.9707032 C1.1971875,19.0807032 0,21.182343 0,23.402343 L0,54.539064 C0,56.789064 1.1971875,58.860702 3.1171875,59.970702 L10.921875,64.470702 C14.701875,66.330702 16.0497657,66.328125 17.7597657,66.328125 C23.369766,66.328125 26.578125,62.938593 26.578125,57.058593 L26.578125,24.931641 C26.578125,24.451641 26.190936,24.058593 25.710936,24.058593 L21.960936,24.058593 C21.450939,24.058593 21.087891,24.451641 21.087891,24.931641 L21.087891,57.029298 C21.087891,59.669298 18.361173,62.248593 13.9511718,60.058593 L5.7890625,55.347657 C5.4890625,55.197657 5.3085939,54.869061 5.3085936,54.539064 L5.3085936,23.431641 C5.3085936,23.071641 5.4890625,22.767891 5.7890625,22.587891 L35.519532,5.4316407 C35.789532,5.2516407 36.151173,5.2516407 36.451173,5.4316407 L66.181641,22.587891 C66.481641,22.767891 66.662109,23.072343 66.662109,23.402343 L66.662109,54.539064 C66.662109,54.869061 66.480939,55.197657 66.210936,55.347657 L36.451173,72.539064 C36.181173,72.689064 35.789532,72.689064 35.519532,72.539064 L27.867186,68.009766 C27.657186,67.859766 27.362343,67.831173 27.152343,67.951173 C25.022343,69.151173 24.632343,69.300234 22.652343,69.990234 C22.172343,70.140234 21.421875,70.439298 22.921875,71.279298 L32.847657,77.162109 C33.807657,77.702109 34.890702,78 35.970702,78 C37.080702,78 38.157186,77.702109 39.117186,77.162109 L68.882814,59.970702 C70.802814,58.860702 72,56.789064 72,54.539064 L72,23.431641 C72,21.181641 70.802814,19.11 68.882814,18 L39.117186,0.8085936 C38.172189,0.2685939 37.077423,0 35.982423,0 Z M43.980468,24.017577 C35.490468,24.017577 30.421875,27.615234 30.421875,33.615234 C30.421875,40.125234 35.457186,41.922423 43.617186,42.732423 C53.367186,43.692423 54.117186,45.136641 54.117186,47.056641 C54.117186,50.356641 51.451641,51.767577 45.181641,51.767577 C37.291641,51.767577 35.550468,49.784766 34.980468,45.884766 C34.920468,45.464766 34.562577,45.164064 34.142577,45.164064 L30.269532,45.164064 C29.789532,45.164064 29.431641,45.557814 29.431641,46.007814 C29.431641,51.017811 32.161641,56.982423 45.181641,56.982423 C54.601641,56.982423 60,53.267109 60,46.787109 C60,40.367109 55.649298,38.653827 46.529298,37.423827 C37.259298,36.223827 36.328125,35.593593 36.328125,33.433593 C36.328125,31.633593 37.140468,29.267577 43.980468,29.267577 C50.070468,29.267577 52.349298,30.583359 53.279298,34.693359 C53.369298,35.083359 53.697186,35.384766 54.117186,35.384766 L57.990234,35.384766 C58.230234,35.384766 58.437189,35.265939 58.617186,35.085936 C58.767186,34.935939 58.858125,34.693827 58.828125,34.423827 C58.228125,27.343827 53.520468,24.017577 43.980468,24.017577 Z" id="Shape"></path>
        </g>
    </g>
</svg>