<?xml version="1.0" encoding="UTF-8"?>
<svg width="92px" height="85px" viewBox="0 0 92 85" version="1.1" xmlns="http://www.w3.org/2000/svg" xmlns:xlink="http://www.w3.org/1999/xlink">
    <title>Shape</title>
    <g id="Page-1" stroke="none" stroke-width="1" fill="none" fill-rule="evenodd">
        <g id="icons8-react-native" transform="translate(-1.000000, 0.000000)" fill="#FFFFFF" fill-rule="nonzero">
            <path d="M66.109376,0.96875 C64.550006,0.9163164 62.917768,1.1881852 61.28125,1.71875 C58.008218,2.779882 54.578406,4.8477696 51.058594,7.7109376 C49.679178,8.8330142 48.287246,10.1156576 46.890624,11.4765624 C45.524796,10.1502078 44.161466,8.9019948 42.8125,7.8046876 C39.295516,4.9438178 35.875,2.8751344 32.609376,1.8164062 C29.343756,0.7576772 26.094446,0.7248712 23.425782,2.265625 C20.757116,3.8063786 19.161238,6.6347116 18.445312,9.9921876 C17.729386,13.349664 17.80825,17.347984 18.527344,21.824218 C18.777118,23.379022 19.133342,25.010156 19.539062,26.671876 C18.01419,27.134008 16.5333534,27.61991 15.1601562,28.15625 C11.0159634,29.774876 7.5868936,31.711326 5.0898438,34.015624 C2.5927938,36.319924 0.9804688,39.116608 0.9804688,42.1875 C0.9804688,45.258392 2.5927938,48.05117 5.0898438,50.355468 C7.5868936,52.659768 11.0159634,54.600124 15.1601562,56.21875 C16.6285032,56.792252 18.218236,57.308652 19.859376,57.796876 C19.269062,60.002556 18.790788,62.142934 18.464844,64.171876 C17.745174,68.651706 17.669176,72.65053 18.386718,76.015624 C19.104268,79.38072 20.700956,82.225068 23.382812,83.773438 C26.064672,85.32181 29.328528,85.283788 32.601562,84.222656 C35.874594,83.161524 39.3005,81.097544 42.820312,78.234376 C44.187024,77.122632 45.569514,75.854412 46.953124,74.507812 C48.343992,75.862526 49.732012,77.136676 51.105468,78.253906 C54.622454,81.114774 58.046876,83.179552 61.3125,84.238282 C64.578122,85.29701 67.82743,85.329816 70.496094,83.789062 C73.164758,82.248308 74.756732,79.419976 75.472656,76.0625 C76.18858,72.705024 76.109714,68.710608 75.390624,64.234376 C75.063798,62.19993 74.585228,60.052454 73.992188,57.839844 C75.687538,57.339732 77.327488,56.809442 78.839844,56.21875 C82.984036,54.600124 86.413106,52.659768 88.910156,50.355468 C91.407206,48.05117 93.019532,45.258392 93.019532,42.1875 C93.019532,39.116608 91.407206,36.319926 88.910156,34.015624 C86.413106,31.711326 82.984036,29.774876 78.839844,28.15625 C77.44694,27.612214 75.943376,27.119984 74.394532,26.652344 C74.80355,24.980442 75.16669,23.33761 75.417968,21.773438 C76.137638,17.293608 76.21365,13.290878 75.496094,9.9257812 C74.778558,6.5606868 73.177952,3.7202488 70.496094,2.171875 C69.155164,1.3976904 67.668744,1.0211836 66.109376,0.96875 Z M65.925782,5.0390624 C66.904308,5.06582 67.73907,5.2986772 68.453124,5.7109376 C69.881236,6.5354574 70.936838,8.1401848 71.5,10.78125 C72.063162,13.422312 72.043696,16.99066 71.378906,21.128906 C71.151294,22.545756 70.820804,24.04738 70.445312,25.585938 C66.354302,24.60139 61.871488,23.870802 57.09375,23.441406 C54.695276,20.118658 52.230808,17.091562 49.746094,14.40625 C51.060364,13.123324 52.366126,11.9234518 53.640624,10.8867188 C56.892052,8.2418664 59.970252,6.4421924 62.539062,5.609375 C63.823468,5.1929648 64.947254,5.012305 65.925782,5.0390624 Z M27.972656,5.0507812 C28.956838,5.0233066 30.082982,5.203483 31.371094,5.6210938 C33.947314,6.4563152 37.030904,8.2551938 40.285156,10.9023438 C41.534074,11.9182672 42.810596,13.095302 44.097656,14.347656 C41.594566,17.054946 39.109724,20.10828 36.695312,23.460938 C31.937778,23.898148 27.473212,24.6327 23.402344,25.621094 C23.029652,24.091074 22.699116,22.597172 22.472656,21.1875 C21.807284,17.04566 21.79068,13.476808 22.355468,10.828125 C22.920256,8.1794416 23.984476,6.5626064 25.425782,5.7304688 C26.146432,5.3144004 26.988474,5.0782558 27.972656,5.0507812 Z M46.953124,17.285156 C48.582344,19.058142 50.211912,20.99832 51.828124,23.085938 C50.240066,23.019722 48.632576,22.980468 47,22.980468 C45.334914,22.980468 43.69682,23.020996 42.078124,23.089844 C43.694704,21.000612 45.3235,19.059474 46.953124,17.285156 Z M47,27.019532 C49.719788,27.019532 52.370696,27.131294 54.949218,27.320312 C56.72346,29.868622 58.457296,32.57211 60.109376,35.433594 C61.561008,37.947896 62.874656,40.458326 64.070312,42.9375 C62.862034,45.449564 61.526368,47.993944 60.054688,50.542968 C58.759218,52.786786 57.40638,54.917898 56.03125,56.972656 C53.118626,57.2161 50.100606,57.351562 47,57.351562 C43.82475,57.351562 40.738924,57.208062 37.761718,56.953124 C36.409484,54.92791 35.07947,52.82908 33.804688,50.621094 C32.336372,48.077898 31.007154,45.538158 29.800782,43.03125 C31.012212,40.510184 32.347402,37.95636 33.824218,35.398438 C35.467636,32.551954 37.196414,29.86411 38.960938,27.328124 C41.567218,27.134848 44.2489,27.019532 47,27.019532 Z M60.097656,27.820312 C63.394598,28.231682 66.490166,28.80281 69.371094,29.488282 C68.516258,32.290574 67.463308,35.217616 66.1875,38.238282 C65.359134,36.641438 64.501198,35.03917 63.574218,33.433594 C62.450844,31.487852 61.280816,29.632832 60.097656,27.820312 Z M33.6875,27.851562 C32.529308,29.630194 31.389672,31.449156 30.289062,33.355468 C29.350188,34.981646 28.474442,36.605472 27.636718,38.222656 C26.37192,35.22015 25.325308,32.309754 24.476562,29.523438 C27.336004,28.836726 30.413532,28.267626 33.6875,27.851562 Z M73.328124,30.550782 C74.745888,30.979754 76.115132,31.42742 77.371094,31.917968 C81.1914,33.410092 84.2133,35.176986 86.171876,36.984376 C88.130448,38.791764 88.980468,40.515392 88.980468,42.1875 C88.980468,43.859608 88.13045,45.583238 86.171876,47.390624 C84.2133,49.198014 81.1914,50.964908 77.371094,52.457032 C75.975396,53.002158 74.44192,53.496486 72.847656,53.964844 C71.710398,50.447286 70.258816,46.777544 68.53125,43.03125 C70.51757,38.730166 72.122176,34.536578 73.328124,30.550782 Z M20.605468,30.570312 C21.797606,34.516338 23.381622,38.668236 25.339844,42.925782 C23.60094,46.69391 22.142174,50.384508 21,53.921876 C19.46192,53.465838 17.980424,52.984902 16.6289062,52.457032 C12.808599,50.964908 9.7867,49.198014 7.828125,47.390624 C5.86955,45.583236 5.0195312,43.859608 5.0195312,42.1875 C5.0195312,40.515392 5.86955,38.791764 7.828125,36.984376 C9.7867,35.176986 12.808599,33.410092 16.6289062,31.917968 C17.865548,31.434966 19.21183,30.993674 20.605468,30.570312 Z M47,33 C41.500842,33 37,37.500842 37,43 C37,48.499158 41.500842,53 47,53 C52.499158,53 57,48.499158 57,43 C57,37.500842 52.499158,33 47,33 Z M27.683594,47.730468 C28.524992,49.355706 29.400056,50.986566 30.34375,52.621094 C31.082096,53.899946 31.836146,55.144786 32.601562,56.367188 C29.915634,55.994744 27.362462,55.52321 24.964844,54.964844 C25.727304,52.62962 26.639488,50.205592 27.683594,47.730468 Z M66.238282,47.730468 C67.286568,50.21145 68.199218,52.639362 68.964844,54.980468 C66.559616,55.538178 63.998584,56.008104 61.304688,56.378906 C62.080142,55.141558 62.845964,53.88114 63.59375,52.585938 C64.530504,50.963434 65.402166,49.343834 66.238282,47.730468 Z M23.8125,58.847656 C27.432148,59.705136 31.355432,60.363824 35.515624,60.792968 C38.29276,64.809718 41.185934,68.418994 44.097656,71.574218 C42.795626,72.843718 41.505132,74.035166 40.242188,75.0625 C36.99076,77.707354 33.908652,79.503118 31.339844,80.335938 C28.771032,81.168756 26.853892,81.058892 25.425782,80.234376 C23.99767,79.409854 22.945974,77.805126 22.382812,75.164062 C21.81965,72.522998 21.835212,68.958558 22.5,64.820312 C22.801586,62.942984 23.2523,60.932748 23.8125,58.847656 Z M70.121094,58.863282 C70.685974,60.961096 71.138026,62.9787 71.441406,64.867188 C72.106778,69.009026 72.12338,72.577878 71.558594,75.226562 C70.993806,77.875246 69.937398,79.495986 68.496094,80.328124 C67.05479,81.160264 65.119188,81.26882 62.542968,80.433594 C59.966748,79.598372 56.883156,77.799494 53.628906,75.152344 C52.356878,74.117622 51.057452,72.916516 49.746094,71.636718 C52.677328,68.46918 55.590934,64.841516 58.386718,60.800782 C62.557402,60.374502 66.491582,59.71975 70.121094,58.863282 Z M40.734376,61.203124 C42.787902,61.315036 44.868488,61.390624 47,61.390624 C49.061008,61.390624 51.074126,61.319574 53.0625,61.214844 C51.029922,63.957186 48.958068,66.450298 46.894532,68.695312 C44.83225,66.445502 42.764288,63.947936 40.734376,61.203124 Z" id="Shape"></path>
        </g>
    </g>
</svg>