<svg width="287" height="283" viewBox="0 0 287 283" fill="none" xmlns="http://www.w3.org/2000/svg">
<path d="M16.5822 179C10.6819 160.714 8.9799 141.412 12.3839 121.546C13.859 113.306 16.1284 105.405 18.6247 97.3905C18.6247 97.3905 34.2832 46.2576 87.2726 22.8923C87.2726 22.8923 105.541 13.2978 133 12.6205C133 12.6205 129.256 9.00848 126.873 7.42822C113.937 -1.15037 94.6479 -3.97228 82.9608 8.10547C79.4433 11.7175 76.4931 15.6682 73.2026 19.2802C69.4581 23.3438 64.9194 26.73 59.6999 28.6489C55.1612 30.3421 50.6225 30.0035 45.9703 30.7936C41.2047 31.5837 36.3256 33.2769 32.4677 36.3245C28.2694 39.7108 26.5674 44.2258 26.1135 49.4182C25.6596 53.4817 25.7731 57.6581 25.5462 61.7217C24.9788 73.6865 21.1209 77.0728 12.4974 83.7325C8.86644 86.4415 5.80281 90.0536 3.53346 93.8914C-3.2746 105.856 7.61829 118.273 8.18563 130.35C8.2991 132.834 8.07216 135.317 7.16442 137.687C6.25668 140.283 4.4412 141.977 2.96612 144.121C0.923705 146.943 -0.437907 150.329 0.129431 153.829C0.696769 157.328 2.51225 160.601 4.21427 163.649C7.50483 169.067 11.5897 173.921 15.9014 178.548C16.1284 178.548 16.3553 178.774 16.5822 179" fill="white"/>
<path d="M232.541 222.999C258.531 211.695 269.605 192.14 269.605 192.14C293.9 159.021 285.651 124.093 285.651 124.093C270.17 157.778 256.045 167.047 256.045 167.047C294.126 109.06 256.271 74.0193 256.271 74.0193C271.752 107.025 251.186 147.266 251.186 147.266C233.897 183.663 209.376 196.662 209.376 196.662C236.722 201.748 256.836 183.324 256.836 183.324C217.625 225.711 175.138 223.677 175.138 223.677C192.991 243.684 219.772 241.988 219.772 241.988C184.742 250.24 151.86 238.597 124.853 216.103C119.768 211.921 114.909 207.4 110.389 202.539C110.389 202.539 106.321 198.244 105.53 197.114L105.417 197.001C104.852 217.912 126.661 237.354 126.661 237.354C99.3151 226.051 86.7722 201.522 86.7722 201.522C86.7722 201.522 68.3533 170.098 81.6872 134.267C95.0211 98.4347 135.362 90.7484 135.362 90.7484C168.697 106.912 196.946 111.999 196.946 111.999C256.497 121.946 253.107 92.783 253.107 92.783C253.672 67.6893 215.817 41.0132 215.817 41.0132C148.357 -9.061 87.3372 23.2668 87.3372 23.2668C34.5665 46.6649 18.9726 97.8695 18.9726 97.8695C16.4867 105.895 14.2267 113.807 12.7577 122.059C6.99473 155.63 15.6957 187.393 34.5665 215.651C63.9463 259.509 111.632 274.655 111.632 274.655C182.256 298.619 230.507 263.352 230.507 263.352C274.916 232.833 283.843 197.566 283.843 197.566C248.022 225.598 232.541 222.999 232.541 222.999ZM177.398 58.0814C180.788 58.0814 183.499 60.7942 183.499 64.1853C183.499 67.5763 180.788 70.2891 177.398 70.2891C174.008 70.2891 171.296 67.5763 171.296 64.1853C171.296 60.7942 174.008 58.0814 177.398 58.0814Z" fill="white"/>
<path d="M252.965 92.778C253.53 67.6567 215.686 40.9512 215.686 40.9512C148.244 -9.06503 87.2421 23.2984 87.2421 23.2984C34.4864 46.7223 18.897 97.9833 18.897 97.9833C15.8469 106.697 13.1357 120.049 13.1357 120.049C9.85961 136.797 11.3282 152.3 11.3282 152.3C12.6838 167.123 15.9598 177.081 15.9598 177.081C19.3488 187.718 20.9304 191 20.9304 191C20.8174 190.661 20.2526 188.171 20.2526 188.171C20.2526 188.171 15.508 165.313 19.9137 143.36C19.9137 143.36 23.7546 120.502 39.344 102.849C39.344 102.849 64.6487 66.7515 111.756 80.8963C111.756 80.8963 121.923 84.5174 125.425 86.328C128.927 88.0253 135.027 90.628 135.027 90.628C168.352 106.81 196.594 111.902 196.594 111.902C256.354 121.973 252.965 92.778 252.965 92.778V92.778ZM177.39 70.4857C174.001 70.4857 171.29 67.7699 171.29 64.3751C171.29 60.9804 174.001 58.2646 177.39 58.2646C180.779 58.2646 183.49 60.9804 183.49 64.3751C183.49 67.7699 180.779 70.4857 177.39 70.4857Z" fill="#E8E8E8"/>
<path d="M149 44.2971L110.557 32.2525C110.332 32.2525 109.205 31.6844 107.175 32.2525C107.175 32.2525 84.5157 38.0475 88.4614 50.5466C88.4614 50.5466 90.8288 58.3869 97.2547 66L139.53 63.9547L149 44.2971Z" fill="white"/>
</svg>
