<?xml version="1.0" encoding="UTF-8"?>
<svg width="460px" height="346px" viewBox="0 0 460 346" version="1.1" xmlns="http://www.w3.org/2000/svg" xmlns:xlink="http://www.w3.org/1999/xlink">
    <title>sass1</title>
    <g id="Page-1" stroke="none" stroke-width="1" fill="none" fill-rule="evenodd">
        <g id="sass1" fill="#FFFFFF" fill-rule="nonzero">
            <path d="M396.009,198.793 C379.913,198.864 365.974,202.745 354.334,208.494 C350.094,199.941 345.71,192.469 344.991,186.865 C344.131,180.325 343.195,176.446 344.202,168.686 C345.209,160.924 349.734,149.93 349.663,149.141 C349.592,148.351 348.657,144.398 339.388,144.326 C330.119,144.255 322.144,146.122 321.209,148.565 C320.273,151.008 318.479,156.542 317.401,162.29 C315.748,170.697 298.861,200.733 289.304,216.397 C286.143,210.291 283.485,204.9 282.909,200.589 C282.047,194.049 281.113,190.17 282.119,182.41 C283.125,174.648 287.651,163.654 287.579,162.865 C287.507,162.075 286.573,158.122 277.305,158.05 C268.035,157.979 260.061,159.846 259.125,162.29 C258.191,164.732 257.185,170.481 255.317,176.016 C253.45,181.546 230.958,231.557 225.066,244.564 C222.047,251.173 219.462,256.491 217.593,260.085 C217.307,260.659 217.091,261.019 216.947,261.307 C217.162,260.948 217.307,260.587 217.307,260.733 C215.726,263.821 214.791,265.546 214.791,265.546 L214.791,265.617 C213.569,267.916 212.204,269.999 211.558,269.999 C211.126,269.999 210.193,263.965 211.774,255.701 C215.15,238.312 223.126,211.297 223.054,210.361 C222.982,209.858 224.562,205.188 217.808,202.672 C211.27,200.301 208.898,204.254 208.324,204.254 C207.75,204.254 207.318,205.692 207.318,205.692 C207.318,205.692 214.576,175.225 193.378,175.225 C180.157,175.225 161.763,189.741 152.71,202.89 C147.033,205.98 134.745,212.662 121.812,219.775 C116.854,222.506 111.752,225.307 106.938,227.967 C106.579,227.606 106.291,227.247 105.932,226.888 C80.208,199.441 32.712,180.04 34.725,143.177 C35.443,129.74 40.114,94.461 126.052,51.635 C196.47,16.57 252.803,26.199 262.505,47.611 C276.443,78.15 232.396,134.987 159.249,143.177 C131.369,146.267 116.712,135.489 113.047,131.466 C109.238,127.227 108.663,127.01 107.226,127.801 C104.854,129.094 106.364,132.831 107.226,135.058 C109.382,140.734 118.363,150.794 133.669,155.824 C147.104,160.207 179.799,162.651 219.318,147.345 C263.724,130.243 298.287,82.603 288.155,42.725 C277.809,2.2 210.625,-11.094 147.034,11.468 C109.167,24.905 68.21,46.031 38.749,73.55 C3.756,106.317 -1.848,134.842 0.45,146.771 C8.642,189.092 66.987,216.685 90.34,237.091 C89.19,237.738 88.112,238.313 87.107,238.888 C75.395,244.707 30.917,267.988 19.779,292.565 C7.206,320.444 21.862,340.418 31.491,343.15 C61.526,351.484 92.28,336.467 108.807,311.82 C125.332,287.175 123.321,254.984 115.705,240.325 C115.632,240.11 115.489,239.968 115.418,239.75 C118.435,237.955 121.524,236.158 124.615,234.362 C130.578,230.841 136.399,227.606 141.5,224.806 C138.625,232.567 136.542,241.904 135.464,255.415 C134.171,271.222 140.71,291.701 149.189,299.749 C152.924,303.27 157.451,303.343 160.254,303.343 C170.17,303.343 174.624,295.15 179.582,285.378 C185.69,273.448 191.079,259.58 191.079,259.58 C191.079,259.58 184.325,297.091 202.791,297.091 C209.545,297.091 216.301,288.396 219.317,283.941 L219.317,284.012 C219.317,284.012 219.462,283.726 219.821,283.152 C220.539,282.073 220.898,281.426 220.898,281.426 L220.898,281.209 C223.628,276.539 229.593,265.832 238.573,248.157 C250.215,225.306 261.351,196.779 261.351,196.779 C261.351,196.779 262.357,203.751 265.808,215.319 C267.819,222.145 272.058,229.618 275.435,236.876 C272.706,240.612 271.052,242.768 271.052,242.768 C271.052,242.768 271.052,242.839 271.122,242.911 C268.967,245.787 266.525,248.877 264.01,251.895 C254.812,262.816 243.89,275.32 242.454,278.912 C240.728,283.152 241.16,286.311 244.466,288.756 C246.908,290.625 251.22,290.911 255.746,290.553 C264.01,289.976 269.83,287.966 272.632,286.67 C277.086,285.092 282.261,282.575 287.147,279.055 C296.129,272.446 301.591,262.961 301.086,250.458 C300.799,243.56 298.57,236.661 295.84,230.196 C296.631,229.045 297.494,227.822 298.284,226.603 C312.513,205.834 323.506,183.059 323.506,183.059 C323.506,183.059 324.512,190.027 327.96,201.596 C329.685,207.417 333.062,213.812 336.151,220.062 C322.786,230.913 314.524,243.489 311.649,251.75 C306.331,267.056 310.499,273.952 318.331,275.536 C321.852,276.254 326.882,274.6 330.619,273.019 C335.289,271.438 340.894,268.923 346.139,265.043 C355.121,258.434 363.816,249.163 363.242,236.589 C363.025,230.912 361.445,225.236 359.361,219.775 C370.641,215.034 385.302,212.445 403.983,214.602 C444.006,219.272 451.837,244.277 450.328,254.695 C448.821,265.187 440.414,270.936 437.611,272.66 C434.807,274.385 433.946,275.032 434.163,276.325 C434.521,278.193 435.814,278.122 438.185,277.689 C441.492,277.115 459.167,269.21 459.956,249.881 C461.108,225.45 437.613,198.578 396.009,198.793 L396.009,198.793 Z M87.538,302.766 C74.318,317.209 55.779,322.67 47.804,318.071 C39.253,313.115 42.63,291.845 58.941,276.467 C68.857,267.127 81.647,258.505 90.126,253.188 C92.066,252.039 94.869,250.314 98.318,248.23 C98.893,247.873 99.18,247.728 99.18,247.728 C99.826,247.295 100.545,246.937 101.264,246.505 C107.226,268.349 101.478,287.605 87.538,302.766 L87.538,302.766 Z M184.111,237.091 C179.512,248.371 169.811,277.114 163.921,275.605 C158.891,274.311 155.8,252.396 162.915,230.841 C166.507,219.99 174.123,207.057 178.651,202.028 C185.907,193.907 193.883,191.32 195.752,194.554 C198.266,198.793 186.984,230.05 184.111,237.091 L184.111,237.091 Z M263.868,275.176 C261.929,276.181 260.132,276.827 259.27,276.324 C258.624,275.965 260.061,274.599 260.061,274.599 C260.061,274.599 270.047,263.893 274,259.005 C276.299,256.132 278.957,252.754 281.832,249.019 C281.832,249.376 281.902,249.738 281.902,250.167 C281.833,263.031 269.474,271.727 263.868,275.176 Z M325.377,261.163 C323.94,260.157 324.154,256.78 328.969,246.288 C330.838,242.192 335.15,235.295 342.621,228.684 C343.484,231.414 343.986,234 343.986,236.443 C343.913,252.611 332.346,258.647 325.377,261.163 L325.377,261.163 Z" id="Shape"></path>
        </g>
    </g>
</svg>