<svg width="153" height="153" viewBox="0 0 153 153" fill="none" xmlns="http://www.w3.org/2000/svg">
<path fill-rule="evenodd" clip-rule="evenodd" d="M0 0V76.5V153H153V0H0ZM33.5452 83.0025V76.7677L33.6599 76.806V70.533L60.4349 70.4182C75.1612 70.4182 87.2865 70.4565 87.2865 70.5712C87.4395 70.6477 87.4395 73.44 87.4395 76.8825V83.0025H67.5495V139.613H53.4352V83.0025H33.5452ZM132.498 75.8497C129.821 73.0575 126.837 71.298 122.936 70.38L123.012 70.3035C120.373 69.615 114.062 69.3855 111.384 69.921C103.122 71.451 97.3462 76.806 95.7015 84.456C95.166 86.6363 95.3572 92.0678 95.931 94.2863C96.696 96.849 98.3407 99.9473 100.138 101.936C103.275 105.226 106.641 107.368 114.559 110.734C121.444 113.794 123.892 115.171 125.116 116.854C125.996 118.193 126.263 118.996 126.263 120.755C126.263 122.668 125.651 124.045 124.236 125.345C120.947 128.329 114.291 128.673 109.318 126.11C107.674 125.192 104.843 122.515 103.581 120.526L102.586 119.187L98.2642 121.712L92.5267 125.039L91.0732 125.957C90.9202 126.225 93.636 130.318 95.0512 131.848C98.6467 135.788 104.499 138.848 110.619 139.995C113.488 140.492 119.608 140.569 122.285 140.11C130.815 138.695 136.782 134.372 139.23 127.985C141.41 122.132 140.684 114.329 137.432 109.357C134.564 104.92 129.821 101.822 118.881 97.1168C112.952 94.5158 111.04 93.2535 110.007 91.1498C109.548 90.1553 109.318 89.4668 109.318 88.2428C109.318 84.2265 112.378 81.8168 116.968 82.1228C120.143 82.3523 122.171 83.5763 124.16 86.4068C124.772 87.4013 125.384 88.0515 125.537 87.9368C129.553 85.4505 136.17 80.9753 136.17 80.7458C136.017 80.0573 133.913 77.3798 132.498 75.8497Z" fill="white"/>
</svg>
